<svg xmlns="http://www.w3.org/2000/svg" viewBox="0 0 300 320" preserveAspectRatio="xMidYMid slice" role="img" aria-hidden="true"><rect width="300" height="320" fill="#d9a988"/><path d="M0 90c90-30 190-30 300 0" stroke="#c8906f" stroke-width="2" fill="none" opacity=".35"/><path d="M0 230c100 26 200 26 300 0" stroke="#c8906f" stroke-width="2" fill="none" opacity=".3"/><ellipse cx="101" cy="55" rx="23" ry="9" fill="#8d5b3f" opacity="0.36"/><ellipse cx="112" cy="27" rx="20" ry="9" fill="#8d5b3f" opacity="0.34"/><ellipse cx="30" cy="37" rx="18" ry="20" fill="#8d5b3f" opacity="0.27"/><ellipse cx="73" cy="198" rx="29" ry="16" fill="#8d5b3f" opacity="0.33"/><ellipse cx="283" cy="24" rx="27" ry="12" fill="#8d5b3f" opacity="0.28"/><ellipse cx="43" cy="103" rx="26" ry="11" fill="#8d5b3f" opacity="0.37"/><ellipse cx="189" cy="122" rx="21" ry="9" fill="#8d5b3f" opacity="0.26"/><ellipse cx="68" cy="214" rx="19" ry="12" fill="#8d5b3f" opacity="0.37"/><ellipse cx="137" cy="100" rx="26" ry="18" fill="#8d5b3f" opacity="0.30"/><ellipse cx="171" cy="168" rx="28" ry="18" fill="#8d5b3f" opacity="0.31"/><ellipse cx="284" cy="45" rx="18" ry="19" fill="#8d5b3f" opacity="0.28"/><ellipse cx="147" cy="22" rx="23" ry="19" fill="#8d5b3f" opacity="0.36"/><ellipse cx="255" cy="104" rx="24" ry="16" fill="#8d5b3f" opacity="0.37"/><ellipse cx="138" cy="262" rx="29" ry="15" fill="#8d5b3f" opacity="0.38"/></svg>